<?xml version="1.0" standalone="no"?>
<!DOCTYPE svg PUBLIC "-//W3C//DTD SVG 20010904//EN"
 "http://www.w3.org/TR/2001/REC-SVG-20010904/DTD/svg10.dtd">
<svg version="1.0" xmlns="http://www.w3.org/2000/svg"
 width="512.000000pt" height="481.000000pt" viewBox="0 0 512.000000 481.000000"
 preserveAspectRatio="xMidYMid meet">

<g transform="translate(0.000000,481.000000) scale(0.100000,-0.100000)"
fill="#000000" stroke="none">
<path d="M2781 4480 c-156 -234 -122 -535 86 -759 76 -83 133 -127 229 -175
95 -47 178 -66 299 -66 120 0 207 19 288 63 65 34 169 132 201 188 l20 34 -40
-31 c-102 -81 -210 -111 -362 -101 -117 8 -193 27 -289 73 -258 123 -437 407
-420 664 3 47 13 104 21 128 8 23 13 42 11 42 -2 0 -21 -27 -44 -60z"/>
<path d="M2145 4289 c-80 -114 -132 -228 -155 -340 -67 -325 46 -672 306 -933
134 -136 296 -237 470 -295 162 -54 407 -61 601 -16 217 50 417 187 540 370
38 56 93 157 93 170 0 3 -26 -21 -57 -55 -304 -329 -848 -359 -1279 -70 -94
63 -237 199 -304 290 -96 130 -173 303 -200 451 -26 143 -5 395 41 480 6 12 9
23 6 25 -3 3 -30 -32 -62 -77z"/>
<path d="M1382 4008 c-55 -73 -116 -166 -136 -205 -224 -451 -110 -1051 286
-1503 228 -260 585 -467 898 -522 116 -20 454 -17 562 5 316 64 582 225 779
473 44 55 159 239 159 254 0 3 -37 -31 -82 -75 -142 -138 -307 -230 -505 -281
-254 -64 -578 -54 -828 28 -486 158 -897 557 -1053 1024 -51 152 -64 227 -69
409 -4 147 -2 184 17 275 12 57 34 137 50 177 15 40 27 73 25 73 -1 0 -48 -60
-103 -132z"/>
<path d="M1378 1489 c-141 -20 -273 -119 -342 -257 -110 -218 -122 -455 -29
-580 34 -46 115 -89 192 -102 41 -7 166 -10 331 -8 l265 3 18 55 c9 30 20 72
23 93 l7 37 -52 0 c-28 0 -51 1 -51 3 0 1 20 59 44 128 62 175 79 263 66 341
-25 159 -129 261 -291 288 -72 11 -100 11 -181 -1z m172 -211 c95 -49 101
-132 28 -383 l-43 -150 -143 0 -144 0 -33 37 c-41 45 -52 103 -37 197 17 100
39 164 75 218 63 95 197 131 297 81z"/>
<path d="M4393 1169 c-169 -247 -161 -240 -183 -151 l-11 42 -109 0 c-70 0
-110 -4 -110 -10 0 -6 20 -81 45 -167 l45 -156 -21 -80 c-11 -44 -18 -86 -15
-93 4 -11 29 -14 98 -14 51 0 99 4 106 8 7 5 23 47 35 93 23 84 24 86 268 409
135 179 249 331 253 338 6 9 -20 12 -118 12 l-125 0 -158 -231z"/>
<path d="M3035 1299 c-163 -22 -259 -97 -315 -247 -35 -94 -53 -183 -54 -272
-1 -115 23 -161 108 -205 l59 -30 227 -3 227 -3 21 87 c12 49 19 90 17 92 -2
2 -79 4 -172 3 -197 0 -251 10 -271 52 -8 16 -11 39 -8 53 l6 24 243 2 242 3
18 85 c36 171 5 285 -88 330 -38 18 -154 42 -190 38 -5 0 -37 -4 -70 -9z m100
-183 c39 -17 58 -46 53 -84 l-3 -27 -129 -3 c-71 -1 -134 2 -139 7 -10 10 13
60 37 80 22 18 86 40 119 41 15 0 43 -6 62 -14z"/>
<path d="M713 1288 c-5 -7 -15 -40 -22 -73 -7 -33 -15 -68 -17 -78 -5 -16 3
-17 102 -15 l108 3 17 80 c10 43 15 83 13 87 -9 14 -190 10 -201 -4z"/>
<path d="M2032 1291 c-13 -8 -91 -359 -107 -478 -10 -75 10 -156 48 -200 52
-59 71 -63 320 -63 l223 0 77 363 c42 199 77 366 77 370 0 4 -44 6 -97 5 l-97
-3 -57 -261 c-31 -144 -59 -269 -62 -278 -5 -13 -23 -16 -97 -16 -77 0 -93 3
-110 20 -29 29 -26 67 24 315 24 121 42 223 39 227 -6 11 -165 10 -181 -1z"/>
<path d="M3565 1268 c-68 -298 -155 -710 -151 -717 7 -12 197 0 201 12 2 7 27
127 56 267 29 140 56 261 62 268 7 9 66 12 234 12 l225 0 -7 32 c-16 71 -33
104 -65 126 -32 21 -40 22 -291 22 l-259 0 -5 -22z"/>
<path d="M655 1048 c-7 -21 -44 -181 -81 -358 -48 -227 -65 -255 -164 -262
l-35 -3 -22 -85 c-13 -49 -19 -88 -14 -93 5 -5 60 -8 123 -6 132 5 171 22 219
97 41 65 62 137 124 427 31 143 58 268 61 278 5 15 -4 17 -101 17 -75 0 -107
-4 -110 -12z"/>
</g>
</svg>
